<mxfile host="65bd71144e" pages="2">
    <diagram id="CvgPCsXY9eOnfGZYOeE3" name="人事管理_ユースケース図">
        <mxGraphModel dx="1022" dy="459" grid="1" gridSize="10" guides="1" tooltips="1" connect="1" arrows="1" fold="1" page="1" pageScale="1" pageWidth="827" pageHeight="1169" math="0" shadow="0">
            <root>
                <mxCell id="RNgX-jbUkB-9QtbaT86_-0"/>
                <mxCell id="RNgX-jbUkB-9QtbaT86_-1" parent="RNgX-jbUkB-9QtbaT86_-0"/>
                <mxCell id="a52AzNElscUmO8eeWN40-0" value="" style="rounded=1;whiteSpace=wrap;html=1;" parent="RNgX-jbUkB-9QtbaT86_-1" vertex="1">
                    <mxGeometry x="690" y="366.75" width="70" height="207.5" as="geometry"/>
                </mxCell>
                <mxCell id="bhvNu0Lqs81DkffSNlAM-0" value="" style="rounded=0;whiteSpace=wrap;html=1;strokeColor=#36393d;fillColor=#f9f7ed;fontColor=#080808;" parent="RNgX-jbUkB-9QtbaT86_-1" vertex="1">
                    <mxGeometry x="268" y="320" width="400" height="240" as="geometry"/>
                </mxCell>
                <mxCell id="bhvNu0Lqs81DkffSNlAM-1" value="正規社員" style="shape=umlActor;verticalLabelPosition=bottom;verticalAlign=top;html=1;outlineConnect=0;strokeColor=#36393d;fillColor=#f9f7ed;fontColor=#080808;" parent="RNgX-jbUkB-9QtbaT86_-1" vertex="1">
                    <mxGeometry x="710" y="376.75" width="30" height="60" as="geometry"/>
                </mxCell>
                <mxCell id="bhvNu0Lqs81DkffSNlAM-2" value="" style="rounded=0;whiteSpace=wrap;html=1;strokeColor=#36393d;fillColor=#f9f7ed;fontColor=#080808;" parent="RNgX-jbUkB-9QtbaT86_-1" vertex="1">
                    <mxGeometry x="820" y="322.5" width="320" height="255" as="geometry"/>
                </mxCell>
                <mxCell id="bhvNu0Lqs81DkffSNlAM-3" value="" style="rounded=1;whiteSpace=wrap;html=1;arcSize=4;strokeColor=#36393d;fillColor=#DEDCD3;fontColor=#080808;" parent="RNgX-jbUkB-9QtbaT86_-1" vertex="1">
                    <mxGeometry x="832" y="352.5" width="300" height="145" as="geometry"/>
                </mxCell>
                <mxCell id="bhvNu0Lqs81DkffSNlAM-4" value="管理者" style="shape=umlActor;verticalLabelPosition=bottom;verticalAlign=top;html=1;outlineConnect=0;strokeColor=#36393d;fillColor=#f9f7ed;fontColor=#080808;" parent="RNgX-jbUkB-9QtbaT86_-1" vertex="1">
                    <mxGeometry x="220" y="371.75" width="40" height="70" as="geometry"/>
                </mxCell>
                <mxCell id="bhvNu0Lqs81DkffSNlAM-5" value="従業員情報参照" style="ellipse;whiteSpace=wrap;html=1;strokeColor=#36393d;fillColor=#f9f7ed;fontColor=#080808;" parent="RNgX-jbUkB-9QtbaT86_-1" vertex="1">
                    <mxGeometry x="914" y="377.5" width="140" height="35" as="geometry"/>
                </mxCell>
                <mxCell id="bhvNu0Lqs81DkffSNlAM-6" value="非正規社員" style="shape=umlActor;verticalLabelPosition=bottom;verticalAlign=top;html=1;outlineConnect=0;strokeColor=#36393d;fillColor=#f9f7ed;fontColor=#080808;" parent="RNgX-jbUkB-9QtbaT86_-1" vertex="1">
                    <mxGeometry x="715" y="484.25" width="20" height="50" as="geometry"/>
                </mxCell>
                <mxCell id="bhvNu0Lqs81DkffSNlAM-7" value="店舗情報参照" style="ellipse;whiteSpace=wrap;html=1;strokeColor=#36393d;fillColor=#f9f7ed;fontColor=#080808;" parent="RNgX-jbUkB-9QtbaT86_-1" vertex="1">
                    <mxGeometry x="914" y="415" width="140" height="35" as="geometry"/>
                </mxCell>
                <mxCell id="bhvNu0Lqs81DkffSNlAM-8" value="" style="rounded=1;whiteSpace=wrap;html=1;arcSize=4;strokeColor=#36393d;fillColor=#DEDCD3;fontColor=#080808;" parent="RNgX-jbUkB-9QtbaT86_-1" vertex="1">
                    <mxGeometry x="292" y="350" width="356" height="200" as="geometry"/>
                </mxCell>
                <mxCell id="bhvNu0Lqs81DkffSNlAM-9" value="人事情報管理" style="text;html=1;strokeColor=none;fillColor=none;align=center;verticalAlign=middle;whiteSpace=wrap;rounded=0;fontColor=#080808;" parent="RNgX-jbUkB-9QtbaT86_-1" vertex="1">
                    <mxGeometry x="821" y="323.5" width="80" height="20" as="geometry"/>
                </mxCell>
                <mxCell id="bhvNu0Lqs81DkffSNlAM-10" value="マスタ管理" style="text;html=1;strokeColor=none;fillColor=none;align=center;verticalAlign=middle;whiteSpace=wrap;rounded=0;fontColor=#080808;" parent="RNgX-jbUkB-9QtbaT86_-1" vertex="1">
                    <mxGeometry x="268" y="320" width="66" height="30" as="geometry"/>
                </mxCell>
                <mxCell id="bhvNu0Lqs81DkffSNlAM-11" value="人事情報参照" style="text;html=1;strokeColor=none;fillColor=none;align=center;verticalAlign=middle;whiteSpace=wrap;rounded=0;fontColor=#080808;" parent="RNgX-jbUkB-9QtbaT86_-1" vertex="1">
                    <mxGeometry x="840" y="362.5" width="74" height="20" as="geometry"/>
                </mxCell>
                <mxCell id="bhvNu0Lqs81DkffSNlAM-12" value="従業員情報管理" style="ellipse;whiteSpace=wrap;html=1;strokeColor=#36393d;fillColor=#f9f7ed;fontColor=#080808;" parent="RNgX-jbUkB-9QtbaT86_-1" vertex="1">
                    <mxGeometry x="368" y="390" width="200" height="35" as="geometry"/>
                </mxCell>
                <mxCell id="bhvNu0Lqs81DkffSNlAM-13" value="店舗情報管理" style="ellipse;whiteSpace=wrap;html=1;strokeColor=#36393d;fillColor=#f9f7ed;fontColor=#080808;" parent="RNgX-jbUkB-9QtbaT86_-1" vertex="1">
                    <mxGeometry x="370" y="437.5" width="200" height="35" as="geometry"/>
                </mxCell>
                <mxCell id="bhvNu0Lqs81DkffSNlAM-14" value="正規非正規ユーザの権限を編集" style="ellipse;whiteSpace=wrap;html=1;strokeColor=#36393d;fillColor=#f9f7ed;fontColor=#080808;" parent="RNgX-jbUkB-9QtbaT86_-1" vertex="1">
                    <mxGeometry x="368" y="490" width="200" height="35" as="geometry"/>
                </mxCell>
                <mxCell id="bhvNu0Lqs81DkffSNlAM-16" value="" style="endArrow=classic;html=1;rounded=0;exitX=1;exitY=0.5;exitDx=0;exitDy=0;entryX=0;entryY=0.5;entryDx=0;entryDy=0;strokeColor=#36393d;fillColor=#f9f7ed;fontColor=#080808;" parent="RNgX-jbUkB-9QtbaT86_-1" source="a52AzNElscUmO8eeWN40-0" target="bhvNu0Lqs81DkffSNlAM-3" edge="1">
                    <mxGeometry width="50" height="50" relative="1" as="geometry">
                        <mxPoint x="1040" y="470" as="sourcePoint"/>
                        <mxPoint x="1090" y="420" as="targetPoint"/>
                    </mxGeometry>
                </mxCell>
                <mxCell id="bhvNu0Lqs81DkffSNlAM-19" value="勤務店舗状況管理" style="ellipse;whiteSpace=wrap;html=1;strokeColor=#36393d;fillColor=#f9f7ed;fontColor=#080808;" parent="RNgX-jbUkB-9QtbaT86_-1" vertex="1">
                    <mxGeometry x="914" y="453" width="140" height="35" as="geometry"/>
                </mxCell>
                <mxCell id="bhvNu0Lqs81DkffSNlAM-20" value="" style="endArrow=classic;html=1;rounded=0;exitX=0.5;exitY=0.5;exitDx=0;exitDy=0;exitPerimeter=0;entryX=0;entryY=0.5;entryDx=0;entryDy=0;strokeColor=#36393d;fillColor=#f9f7ed;fontColor=#080808;" parent="RNgX-jbUkB-9QtbaT86_-1" source="bhvNu0Lqs81DkffSNlAM-4" target="bhvNu0Lqs81DkffSNlAM-12" edge="1">
                    <mxGeometry width="50" height="50" relative="1" as="geometry">
                        <mxPoint x="340" y="660" as="sourcePoint"/>
                        <mxPoint x="390" y="610" as="targetPoint"/>
                    </mxGeometry>
                </mxCell>
                <mxCell id="bhvNu0Lqs81DkffSNlAM-21" value="" style="endArrow=classic;html=1;rounded=0;exitX=0.5;exitY=0.5;exitDx=0;exitDy=0;exitPerimeter=0;entryX=0;entryY=0.5;entryDx=0;entryDy=0;strokeColor=#36393d;fillColor=#f9f7ed;fontColor=#080808;" parent="RNgX-jbUkB-9QtbaT86_-1" source="bhvNu0Lqs81DkffSNlAM-4" target="bhvNu0Lqs81DkffSNlAM-13" edge="1">
                    <mxGeometry width="50" height="50" relative="1" as="geometry">
                        <mxPoint x="100" y="540" as="sourcePoint"/>
                        <mxPoint x="150" y="490" as="targetPoint"/>
                    </mxGeometry>
                </mxCell>
                <mxCell id="bhvNu0Lqs81DkffSNlAM-22" value="" style="endArrow=classic;html=1;rounded=0;exitX=0.5;exitY=0.5;exitDx=0;exitDy=0;exitPerimeter=0;entryX=0;entryY=0.5;entryDx=0;entryDy=0;strokeColor=#36393d;fillColor=#f9f7ed;fontColor=#080808;" parent="RNgX-jbUkB-9QtbaT86_-1" source="bhvNu0Lqs81DkffSNlAM-4" target="bhvNu0Lqs81DkffSNlAM-14" edge="1">
                    <mxGeometry width="50" height="50" relative="1" as="geometry">
                        <mxPoint x="340" y="660" as="sourcePoint"/>
                        <mxPoint x="390" y="610" as="targetPoint"/>
                    </mxGeometry>
                </mxCell>
                <mxCell id="bhvNu0Lqs81DkffSNlAM-23" value="" style="rounded=1;whiteSpace=wrap;html=1;arcSize=8;strokeColor=#36393d;fillColor=#DEDCD3;fontColor=#080808;" parent="RNgX-jbUkB-9QtbaT86_-1" vertex="1">
                    <mxGeometry x="832" y="502" width="300" height="65" as="geometry"/>
                </mxCell>
                <mxCell id="bhvNu0Lqs81DkffSNlAM-24" value="情報検索" style="text;html=1;strokeColor=none;fillColor=none;align=center;verticalAlign=middle;whiteSpace=wrap;rounded=0;fontColor=#080808;" parent="RNgX-jbUkB-9QtbaT86_-1" vertex="1">
                    <mxGeometry x="838" y="512" width="56" height="20" as="geometry"/>
                </mxCell>
                <mxCell id="bhvNu0Lqs81DkffSNlAM-25" value="絞込検索機能" style="ellipse;whiteSpace=wrap;html=1;strokeColor=#36393d;fillColor=#f9f7ed;fontColor=#080808;" parent="RNgX-jbUkB-9QtbaT86_-1" vertex="1">
                    <mxGeometry x="908" y="524.5" width="140" height="35" as="geometry"/>
                </mxCell>
                <mxCell id="bhvNu0Lqs81DkffSNlAM-28" value="" style="endArrow=classic;html=1;rounded=0;entryX=0;entryY=0.5;entryDx=0;entryDy=0;strokeColor=#36393d;fillColor=#f9f7ed;fontColor=#080808;exitX=1;exitY=0.5;exitDx=0;exitDy=0;" parent="RNgX-jbUkB-9QtbaT86_-1" source="a52AzNElscUmO8eeWN40-0" target="bhvNu0Lqs81DkffSNlAM-23" edge="1">
                    <mxGeometry width="50" height="50" relative="1" as="geometry">
                        <mxPoint x="890" y="530" as="sourcePoint"/>
                        <mxPoint x="1090" y="410" as="targetPoint"/>
                    </mxGeometry>
                </mxCell>
                <mxCell id="bhvNu0Lqs81DkffSNlAM-29" value="" style="endArrow=classic;html=1;rounded=0;exitX=0.5;exitY=0.5;exitDx=0;exitDy=0;exitPerimeter=0;entryX=1;entryY=0.5;entryDx=0;entryDy=0;strokeColor=#36393d;fillColor=#f9f7ed;fontColor=#080808;" parent="RNgX-jbUkB-9QtbaT86_-1" source="bhvNu0Lqs81DkffSNlAM-1" target="bhvNu0Lqs81DkffSNlAM-12" edge="1">
                    <mxGeometry width="50" height="50" relative="1" as="geometry">
                        <mxPoint x="340" y="650" as="sourcePoint"/>
                        <mxPoint x="370" y="440" as="targetPoint"/>
                    </mxGeometry>
                </mxCell>
                <mxCell id="bhvNu0Lqs81DkffSNlAM-31" value="人事情報管理" style="text;html=1;strokeColor=none;fillColor=none;align=center;verticalAlign=middle;whiteSpace=wrap;rounded=0;fontColor=#080808;" parent="RNgX-jbUkB-9QtbaT86_-1" vertex="1">
                    <mxGeometry x="297" y="360" width="80" height="20" as="geometry"/>
                </mxCell>
            </root>
        </mxGraphModel>
    </diagram>
    <diagram id="1RIJjTR2KE_wcN-HXxek" name="在庫管理_ユースケース図">
        <mxGraphModel dx="1022" dy="1628" grid="1" gridSize="10" guides="1" tooltips="1" connect="1" arrows="1" fold="1" page="1" pageScale="1" pageWidth="827" pageHeight="1169" math="0" shadow="0">
            <root>
                <mxCell id="0"/>
                <mxCell id="mOK6NjzvD6mZe8noQFNt-67" value="Untitled Layer" style="" parent="0"/>
                <mxCell id="mOK6NjzvD6mZe8noQFNt-68" value="" style="rounded=0;whiteSpace=wrap;html=1;strokeColor=#36393d;fillColor=#f9f7ed;fontColor=#080808;" parent="mOK6NjzvD6mZe8noQFNt-67" vertex="1">
                    <mxGeometry x="950" y="-25" width="400" height="610" as="geometry"/>
                </mxCell>
                <mxCell id="mOK6NjzvD6mZe8noQFNt-69" value="" style="rounded=1;whiteSpace=wrap;html=1;arcSize=4;strokeColor=#36393d;fillColor=#DEDCD3;fontColor=#080808;" parent="mOK6NjzvD6mZe8noQFNt-67" vertex="1">
                    <mxGeometry x="972" y="8" width="356" height="87" as="geometry"/>
                </mxCell>
                <mxCell id="mOK6NjzvD6mZe8noQFNt-70" value="" style="rounded=1;whiteSpace=wrap;html=1;arcSize=8;strokeColor=#36393d;fillColor=#DEDCD3;fontColor=#080808;" parent="mOK6NjzvD6mZe8noQFNt-67" vertex="1">
                    <mxGeometry x="972" y="98" width="356" height="55" as="geometry"/>
                </mxCell>
                <mxCell id="mOK6NjzvD6mZe8noQFNt-71" value="" style="rounded=1;whiteSpace=wrap;html=1;arcSize=4;strokeColor=#36393d;fillColor=#DEDCD3;fontColor=#080808;" parent="mOK6NjzvD6mZe8noQFNt-67" vertex="1">
                    <mxGeometry x="972" y="155" width="356" height="88" as="geometry"/>
                </mxCell>
                <mxCell id="mOK6NjzvD6mZe8noQFNt-72" value="検索機能" style="text;html=1;strokeColor=none;fillColor=none;align=center;verticalAlign=middle;whiteSpace=wrap;rounded=0;fontColor=#080808;" parent="mOK6NjzvD6mZe8noQFNt-67" vertex="1">
                    <mxGeometry x="967" y="155" width="360" height="20" as="geometry"/>
                </mxCell>
                <mxCell id="mOK6NjzvD6mZe8noQFNt-73" value="" style="rounded=1;whiteSpace=wrap;html=1;arcSize=8;strokeColor=#36393d;fillColor=#DEDCD3;fontColor=#080808;" parent="mOK6NjzvD6mZe8noQFNt-67" vertex="1">
                    <mxGeometry x="973" y="245" width="356" height="55" as="geometry"/>
                </mxCell>
                <mxCell id="mOK6NjzvD6mZe8noQFNt-74" value="" style="rounded=1;whiteSpace=wrap;html=1;arcSize=8;strokeColor=#36393d;fillColor=#DEDCD3;fontColor=#080808;" parent="mOK6NjzvD6mZe8noQFNt-67" vertex="1">
                    <mxGeometry x="973" y="304" width="356" height="55" as="geometry"/>
                </mxCell>
                <mxCell id="mOK6NjzvD6mZe8noQFNt-75" value="" style="rounded=1;whiteSpace=wrap;html=1;arcSize=4;strokeColor=#36393d;fillColor=#DEDCD3;fontColor=#080808;" parent="mOK6NjzvD6mZe8noQFNt-67" vertex="1">
                    <mxGeometry x="973" y="362" width="356" height="50" as="geometry"/>
                </mxCell>
                <mxCell id="mOK6NjzvD6mZe8noQFNt-76" value="" style="rounded=1;whiteSpace=wrap;html=1;arcSize=8;strokeColor=#36393d;fillColor=#DEDCD3;fontColor=#080808;" parent="mOK6NjzvD6mZe8noQFNt-67" vertex="1">
                    <mxGeometry x="973" y="415" width="356" height="55" as="geometry"/>
                </mxCell>
                <mxCell id="mOK6NjzvD6mZe8noQFNt-77" value="" style="rounded=1;whiteSpace=wrap;html=1;arcSize=4;strokeColor=#36393d;fillColor=#DEDCD3;fontColor=#080808;" parent="mOK6NjzvD6mZe8noQFNt-67" vertex="1">
                    <mxGeometry x="973" y="472" width="356" height="50" as="geometry"/>
                </mxCell>
                <mxCell id="mOK6NjzvD6mZe8noQFNt-78" value="" style="rounded=1;whiteSpace=wrap;html=1;arcSize=8;strokeColor=#36393d;fillColor=#DEDCD3;fontColor=#080808;" parent="mOK6NjzvD6mZe8noQFNt-67" vertex="1">
                    <mxGeometry x="973" y="525" width="356" height="47" as="geometry"/>
                </mxCell>
                <mxCell id="1" style="" parent="0"/>
                <mxCell id="VGDOHHYCb-uCLaKSD1Ca-94" value="" style="rounded=1;whiteSpace=wrap;html=1;" parent="1" vertex="1">
                    <mxGeometry x="800" y="310" width="80" height="250" as="geometry"/>
                </mxCell>
                <mxCell id="2" value="" style="rounded=0;whiteSpace=wrap;html=1;strokeColor=#36393d;fillColor=#f9f7ed;fontColor=#080808;" parent="1" vertex="1">
                    <mxGeometry x="378" y="191" width="400" height="370" as="geometry"/>
                </mxCell>
                <mxCell id="6" value="管理者" style="shape=umlActor;verticalLabelPosition=bottom;verticalAlign=top;html=1;outlineConnect=0;strokeColor=#36393d;fillColor=#f9f7ed;fontColor=#080808;" parent="1" vertex="1">
                    <mxGeometry x="280" y="373.5" width="40" height="70" as="geometry"/>
                </mxCell>
                <mxCell id="7" value="移動指示入力" style="ellipse;whiteSpace=wrap;html=1;strokeColor=#36393d;fillColor=#f9f7ed;fontColor=#080808;" parent="1" vertex="1">
                    <mxGeometry x="977" y="28" width="170" height="27" as="geometry"/>
                </mxCell>
                <mxCell id="9" value="" style="rounded=1;whiteSpace=wrap;html=1;arcSize=4;strokeColor=#36393d;fillColor=#DEDCD3;fontColor=#080808;" parent="1" vertex="1">
                    <mxGeometry x="400" y="221" width="356" height="330" as="geometry"/>
                </mxCell>
                <mxCell id="10" value="在庫管理" style="text;html=1;strokeColor=none;fillColor=none;align=center;verticalAlign=middle;whiteSpace=wrap;rounded=0;fontColor=#080808;" parent="1" vertex="1">
                    <mxGeometry x="950" y="-15" width="80" height="20" as="geometry"/>
                </mxCell>
                <mxCell id="11" value="マスタ管理" style="text;html=1;strokeColor=none;fillColor=none;align=center;verticalAlign=middle;whiteSpace=wrap;rounded=0;fontColor=#080808;" parent="1" vertex="1">
                    <mxGeometry x="380" y="191" width="80" height="30" as="geometry"/>
                </mxCell>
                <mxCell id="12" value="在庫管理" style="text;html=1;strokeColor=none;fillColor=none;align=center;verticalAlign=middle;whiteSpace=wrap;rounded=0;fontColor=#080808;" parent="1" vertex="1">
                    <mxGeometry x="966" y="8" width="360" height="20" as="geometry"/>
                </mxCell>
                <mxCell id="13" value="商品、JAN、製品のコードを登録" style="ellipse;whiteSpace=wrap;html=1;strokeColor=#36393d;fillColor=#f9f7ed;fontColor=#080808;" parent="1" vertex="1">
                    <mxGeometry x="471.5" y="251" width="219" height="35" as="geometry"/>
                </mxCell>
                <mxCell id="14" value="商品画像を登録" style="ellipse;whiteSpace=wrap;html=1;strokeColor=#36393d;fillColor=#f9f7ed;fontColor=#080808;" parent="1" vertex="1">
                    <mxGeometry x="482" y="296" width="200" height="35" as="geometry"/>
                </mxCell>
                <mxCell id="15" value="商品分類(カテゴリ)の登録" style="ellipse;whiteSpace=wrap;html=1;strokeColor=#36393d;fillColor=#f9f7ed;fontColor=#080808;" parent="1" vertex="1">
                    <mxGeometry x="479" y="338.5" width="200" height="35" as="geometry"/>
                </mxCell>
                <mxCell id="20" value="" style="endArrow=classic;html=1;rounded=0;exitX=0.5;exitY=0.5;exitDx=0;exitDy=0;exitPerimeter=0;entryX=0;entryY=0.5;entryDx=0;entryDy=0;strokeColor=#36393d;fillColor=#f9f7ed;fontColor=#080808;" parent="1" source="6" target="13" edge="1">
                    <mxGeometry width="50" height="50" relative="1" as="geometry">
                        <mxPoint x="450" y="661" as="sourcePoint"/>
                        <mxPoint x="500" y="611" as="targetPoint"/>
                    </mxGeometry>
                </mxCell>
                <mxCell id="21" value="" style="endArrow=classic;html=1;rounded=0;exitX=0.5;exitY=0.5;exitDx=0;exitDy=0;exitPerimeter=0;entryX=0;entryY=0.5;entryDx=0;entryDy=0;strokeColor=#36393d;fillColor=#f9f7ed;fontColor=#080808;" parent="1" source="6" target="14" edge="1">
                    <mxGeometry width="50" height="50" relative="1" as="geometry">
                        <mxPoint x="210" y="541" as="sourcePoint"/>
                        <mxPoint x="260" y="491" as="targetPoint"/>
                    </mxGeometry>
                </mxCell>
                <mxCell id="22" value="" style="endArrow=classic;html=1;rounded=0;exitX=0.5;exitY=0.5;exitDx=0;exitDy=0;exitPerimeter=0;entryX=0;entryY=0.5;entryDx=0;entryDy=0;strokeColor=#36393d;fillColor=#f9f7ed;fontColor=#080808;" parent="1" source="6" target="15" edge="1">
                    <mxGeometry width="50" height="50" relative="1" as="geometry">
                        <mxPoint x="450" y="661" as="sourcePoint"/>
                        <mxPoint x="500" y="611" as="targetPoint"/>
                    </mxGeometry>
                </mxCell>
                <mxCell id="24" value="セット品の在庫管理" style="text;html=1;strokeColor=none;fillColor=none;align=center;verticalAlign=middle;whiteSpace=wrap;rounded=0;fontColor=#080808;" parent="1" vertex="1">
                    <mxGeometry x="966" y="98" width="360" height="20" as="geometry"/>
                </mxCell>
                <mxCell id="28" value="" style="endArrow=classic;html=1;rounded=0;strokeColor=#36393d;fillColor=#f9f7ed;fontColor=#080808;entryX=1;entryY=0.5;entryDx=0;entryDy=0;exitX=0.5;exitY=0.5;exitDx=0;exitDy=0;exitPerimeter=0;" parent="1" source="VGDOHHYCb-uCLaKSD1Ca-96" target="32" edge="1">
                    <mxGeometry width="50" height="50" relative="1" as="geometry">
                        <mxPoint x="800" y="434.5" as="sourcePoint"/>
                        <mxPoint x="380" y="437" as="targetPoint"/>
                    </mxGeometry>
                </mxCell>
                <mxCell id="30" value="人事情報管理" style="text;html=1;strokeColor=none;fillColor=none;align=center;verticalAlign=middle;whiteSpace=wrap;rounded=0;fontColor=#080808;" parent="1" vertex="1">
                    <mxGeometry x="402" y="231" width="348" height="20" as="geometry"/>
                </mxCell>
                <mxCell id="31" value="倉庫情報管理" style="ellipse;whiteSpace=wrap;html=1;strokeColor=#36393d;fillColor=#f9f7ed;fontColor=#080808;" parent="1" vertex="1">
                    <mxGeometry x="478" y="381" width="200" height="35" as="geometry"/>
                </mxCell>
                <mxCell id="32" value="ベンチマークマスタ管理" style="ellipse;whiteSpace=wrap;html=1;strokeColor=#36393d;fillColor=#f9f7ed;fontColor=#080808;" parent="1" vertex="1">
                    <mxGeometry x="484" y="421" width="200" height="35" as="geometry"/>
                </mxCell>
                <mxCell id="33" value="売上情報管理" style="ellipse;whiteSpace=wrap;html=1;strokeColor=#36393d;fillColor=#f9f7ed;fontColor=#080808;" parent="1" vertex="1">
                    <mxGeometry x="481" y="461" width="200" height="35" as="geometry"/>
                </mxCell>
                <mxCell id="34" value="販売履歴管理" style="ellipse;whiteSpace=wrap;html=1;strokeColor=#36393d;fillColor=#f9f7ed;fontColor=#080808;" parent="1" vertex="1">
                    <mxGeometry x="481" y="501" width="200" height="35" as="geometry"/>
                </mxCell>
                <mxCell id="35" value="倉庫別在庫管理" style="ellipse;whiteSpace=wrap;html=1;strokeColor=#36393d;fillColor=#f9f7ed;fontColor=#080808;" parent="1" vertex="1">
                    <mxGeometry x="1151" y="28" width="170" height="27" as="geometry"/>
                </mxCell>
                <mxCell id="36" value="商品情報管理" style="ellipse;whiteSpace=wrap;html=1;strokeColor=#36393d;fillColor=#f9f7ed;fontColor=#080808;" parent="1" vertex="1">
                    <mxGeometry x="977" y="59" width="170" height="27" as="geometry"/>
                </mxCell>
                <mxCell id="37" value="セット商品管理機能" style="ellipse;whiteSpace=wrap;html=1;strokeColor=#36393d;fillColor=#f9f7ed;fontColor=#080808;" parent="1" vertex="1">
                    <mxGeometry x="977" y="120" width="170" height="27" as="geometry"/>
                </mxCell>
                <mxCell id="40" value="商品情報検索機能" style="ellipse;whiteSpace=wrap;html=1;strokeColor=#36393d;fillColor=#f9f7ed;fontColor=#080808;" parent="1" vertex="1">
                    <mxGeometry x="977" y="172" width="170" height="27" as="geometry"/>
                </mxCell>
                <mxCell id="41" value="在庫情報検索機能" style="ellipse;whiteSpace=wrap;html=1;strokeColor=#36393d;fillColor=#f9f7ed;fontColor=#080808;" parent="1" vertex="1">
                    <mxGeometry x="1152" y="173" width="170" height="27" as="geometry"/>
                </mxCell>
                <mxCell id="42" value="ボトルネック検索機能" style="ellipse;whiteSpace=wrap;html=1;strokeColor=#36393d;fillColor=#f9f7ed;fontColor=#080808;" parent="1" vertex="1">
                    <mxGeometry x="979" y="203" width="170" height="27" as="geometry"/>
                </mxCell>
                <mxCell id="43" value="スペック検索機能" style="ellipse;whiteSpace=wrap;html=1;strokeColor=#36393d;fillColor=#f9f7ed;fontColor=#080808;" parent="1" vertex="1">
                    <mxGeometry x="1152" y="203" width="170" height="27" as="geometry"/>
                </mxCell>
                <mxCell id="45" value="取置予約管理" style="text;html=1;strokeColor=none;fillColor=none;align=center;verticalAlign=middle;whiteSpace=wrap;rounded=0;fontColor=#080808;" parent="1" vertex="1">
                    <mxGeometry x="969" y="243" width="360" height="20" as="geometry"/>
                </mxCell>
                <mxCell id="46" value="取置予約機能" style="ellipse;whiteSpace=wrap;html=1;strokeColor=#36393d;fillColor=#f9f7ed;fontColor=#080808;" parent="1" vertex="1">
                    <mxGeometry x="979" y="262" width="170" height="27" as="geometry"/>
                </mxCell>
                <mxCell id="48" value="粗利計算" style="text;html=1;strokeColor=none;fillColor=none;align=center;verticalAlign=middle;whiteSpace=wrap;rounded=0;fontColor=#080808;" parent="1" vertex="1">
                    <mxGeometry x="968" y="301" width="360" height="20" as="geometry"/>
                </mxCell>
                <mxCell id="49" value="粗利計算機能" style="ellipse;whiteSpace=wrap;html=1;strokeColor=#36393d;fillColor=#f9f7ed;fontColor=#080808;" parent="1" vertex="1">
                    <mxGeometry x="979" y="325.5" width="170" height="27" as="geometry"/>
                </mxCell>
                <mxCell id="51" value="セット販売見積機能" style="ellipse;whiteSpace=wrap;html=1;strokeColor=#36393d;fillColor=#f9f7ed;fontColor=#080808;" parent="1" vertex="1">
                    <mxGeometry x="979" y="379" width="170" height="27" as="geometry"/>
                </mxCell>
                <mxCell id="52" value="見積" style="text;html=1;strokeColor=none;fillColor=none;align=center;verticalAlign=middle;whiteSpace=wrap;rounded=0;fontColor=#080808;" parent="1" vertex="1">
                    <mxGeometry x="970" y="362" width="360" height="20" as="geometry"/>
                </mxCell>
                <mxCell id="53" value="販売価格見積機能" style="ellipse;whiteSpace=wrap;html=1;strokeColor=#36393d;fillColor=#f9f7ed;fontColor=#080808;" parent="1" vertex="1">
                    <mxGeometry x="1153" y="379" width="170" height="27" as="geometry"/>
                </mxCell>
                <mxCell id="55" value="&lt;span&gt;倉庫在庫管理&lt;/span&gt;" style="text;html=1;strokeColor=none;fillColor=none;align=center;verticalAlign=middle;whiteSpace=wrap;rounded=0;fontColor=#080808;" parent="1" vertex="1">
                    <mxGeometry x="968" y="412" width="360" height="20" as="geometry"/>
                </mxCell>
                <mxCell id="56" value="倉庫在庫管理情報" style="ellipse;whiteSpace=wrap;html=1;strokeColor=#36393d;fillColor=#f9f7ed;fontColor=#080808;" parent="1" vertex="1">
                    <mxGeometry x="979" y="433" width="170" height="27" as="geometry"/>
                </mxCell>
                <mxCell id="58" value="売上情報参照" style="ellipse;whiteSpace=wrap;html=1;strokeColor=#36393d;fillColor=#f9f7ed;fontColor=#080808;" parent="1" vertex="1">
                    <mxGeometry x="979" y="489" width="170" height="27" as="geometry"/>
                </mxCell>
                <mxCell id="59" value="売上" style="text;html=1;strokeColor=none;fillColor=none;align=center;verticalAlign=middle;whiteSpace=wrap;rounded=0;fontColor=#080808;" parent="1" vertex="1">
                    <mxGeometry x="970" y="472" width="360" height="20" as="geometry"/>
                </mxCell>
                <mxCell id="60" value="売上情報登録" style="ellipse;whiteSpace=wrap;html=1;strokeColor=#36393d;fillColor=#f9f7ed;fontColor=#080808;" parent="1" vertex="1">
                    <mxGeometry x="1153" y="492" width="170" height="26" as="geometry"/>
                </mxCell>
                <mxCell id="62" value="販売履歴" style="text;html=1;strokeColor=none;fillColor=none;align=center;verticalAlign=middle;whiteSpace=wrap;rounded=0;fontColor=#080808;" parent="1" vertex="1">
                    <mxGeometry x="968" y="522" width="360" height="20" as="geometry"/>
                </mxCell>
                <mxCell id="63" value="販売履歴検索" style="ellipse;whiteSpace=wrap;html=1;strokeColor=#36393d;fillColor=#f9f7ed;fontColor=#080808;" parent="1" vertex="1">
                    <mxGeometry x="979" y="538" width="170" height="27" as="geometry"/>
                </mxCell>
                <mxCell id="64" value="" style="endArrow=classic;html=1;rounded=0;exitX=0.5;exitY=0.5;exitDx=0;exitDy=0;exitPerimeter=0;entryX=0;entryY=0.5;entryDx=0;entryDy=0;" parent="1" source="6" target="31" edge="1">
                    <mxGeometry width="50" height="50" relative="1" as="geometry">
                        <mxPoint x="320" y="501" as="sourcePoint"/>
                        <mxPoint x="370" y="451" as="targetPoint"/>
                    </mxGeometry>
                </mxCell>
                <mxCell id="65" value="" style="endArrow=classic;html=1;rounded=0;exitX=0.5;exitY=0.5;exitDx=0;exitDy=0;exitPerimeter=0;entryX=0;entryY=0.5;entryDx=0;entryDy=0;" parent="1" source="6" target="32" edge="1">
                    <mxGeometry width="50" height="50" relative="1" as="geometry">
                        <mxPoint x="310" y="418.5" as="sourcePoint"/>
                        <mxPoint x="488.00000000000034" y="408.5" as="targetPoint"/>
                    </mxGeometry>
                </mxCell>
                <mxCell id="66" value="" style="endArrow=classic;html=1;rounded=0;exitX=0.5;exitY=0.5;exitDx=0;exitDy=0;exitPerimeter=0;entryX=0;entryY=0.5;entryDx=0;entryDy=0;" parent="1" source="6" target="33" edge="1">
                    <mxGeometry width="50" height="50" relative="1" as="geometry">
                        <mxPoint x="320" y="428.5" as="sourcePoint"/>
                        <mxPoint x="498.00000000000034" y="418.5" as="targetPoint"/>
                    </mxGeometry>
                </mxCell>
                <mxCell id="67" value="" style="endArrow=classic;html=1;rounded=0;exitX=0.5;exitY=0.5;exitDx=0;exitDy=0;exitPerimeter=0;entryX=0;entryY=0.5;entryDx=0;entryDy=0;" parent="1" source="6" target="34" edge="1">
                    <mxGeometry width="50" height="50" relative="1" as="geometry">
                        <mxPoint x="330" y="438.5" as="sourcePoint"/>
                        <mxPoint x="508.00000000000034" y="428.5" as="targetPoint"/>
                    </mxGeometry>
                </mxCell>
                <mxCell id="26" value="" style="endArrow=classic;html=1;rounded=0;exitX=1;exitY=0.25;exitDx=0;exitDy=0;entryX=0;entryY=0.5;entryDx=0;entryDy=0;strokeColor=#36393d;fillColor=#f9f7ed;fontColor=#080808;startArrow=none;" parent="1" source="VGDOHHYCb-uCLaKSD1Ca-94" target="mOK6NjzvD6mZe8noQFNt-70" edge="1">
                    <mxGeometry width="50" height="50" relative="1" as="geometry">
                        <mxPoint x="925" y="254" as="sourcePoint"/>
                        <mxPoint x="1070" y="172.5" as="targetPoint"/>
                    </mxGeometry>
                </mxCell>
                <mxCell id="VGDOHHYCb-uCLaKSD1Ca-91" value="" style="endArrow=classic;html=1;rounded=0;exitX=1;exitY=0.25;exitDx=0;exitDy=0;strokeColor=#36393d;fillColor=#f9f7ed;fontColor=#080808;entryX=0;entryY=0.5;entryDx=0;entryDy=0;" parent="1" source="VGDOHHYCb-uCLaKSD1Ca-94" target="mOK6NjzvD6mZe8noQFNt-69" edge="1">
                    <mxGeometry width="50" height="50" relative="1" as="geometry">
                        <mxPoint x="950" y="281.25" as="sourcePoint"/>
                        <mxPoint x="1070" y="77" as="targetPoint"/>
                    </mxGeometry>
                </mxCell>
                <mxCell id="VGDOHHYCb-uCLaKSD1Ca-96" value="正規社員" style="shape=umlActor;verticalLabelPosition=bottom;verticalAlign=top;html=1;outlineConnect=0;strokeColor=#36393d;fillColor=#f9f7ed;fontColor=#080808;" parent="1" vertex="1">
                    <mxGeometry x="820" y="332.5" width="40" height="70" as="geometry"/>
                </mxCell>
                <mxCell id="nKxn7mJy5K4W1X4Z80WW-80" value="非正規社員" style="shape=umlActor;verticalLabelPosition=bottom;verticalAlign=top;html=1;outlineConnect=0;strokeColor=#36393d;fillColor=#f9f7ed;fontColor=#080808;" parent="1" vertex="1">
                    <mxGeometry x="817" y="445" width="40" height="70" as="geometry"/>
                </mxCell>
                <mxCell id="nKxn7mJy5K4W1X4Z80WW-82" value="" style="endArrow=classic;html=1;rounded=0;exitX=1;exitY=0.25;exitDx=0;exitDy=0;entryX=0;entryY=0.5;entryDx=0;entryDy=0;strokeColor=#36393d;fillColor=#f9f7ed;fontColor=#080808;startArrow=none;" parent="1" source="VGDOHHYCb-uCLaKSD1Ca-94" target="mOK6NjzvD6mZe8noQFNt-71" edge="1">
                    <mxGeometry width="50" height="50" relative="1" as="geometry">
                        <mxPoint x="960" y="294.5" as="sourcePoint"/>
                        <mxPoint x="1070" y="276" as="targetPoint"/>
                    </mxGeometry>
                </mxCell>
                <mxCell id="nKxn7mJy5K4W1X4Z80WW-83" value="" style="endArrow=classic;html=1;rounded=0;exitX=1;exitY=0.25;exitDx=0;exitDy=0;entryX=0;entryY=0.5;entryDx=0;entryDy=0;strokeColor=#36393d;fillColor=#f9f7ed;fontColor=#080808;startArrow=none;" parent="1" source="VGDOHHYCb-uCLaKSD1Ca-94" target="mOK6NjzvD6mZe8noQFNt-73" edge="1">
                    <mxGeometry width="50" height="50" relative="1" as="geometry">
                        <mxPoint x="960" y="294.5" as="sourcePoint"/>
                        <mxPoint x="1070" y="380.5" as="targetPoint"/>
                    </mxGeometry>
                </mxCell>
                <mxCell id="nKxn7mJy5K4W1X4Z80WW-84" value="" style="endArrow=classic;html=1;rounded=0;entryX=0;entryY=0.5;entryDx=0;entryDy=0;strokeColor=#36393d;fillColor=#f9f7ed;fontColor=#080808;startArrow=none;exitX=1;exitY=0.25;exitDx=0;exitDy=0;" parent="1" source="VGDOHHYCb-uCLaKSD1Ca-94" target="mOK6NjzvD6mZe8noQFNt-74" edge="1">
                    <mxGeometry width="50" height="50" relative="1" as="geometry">
                        <mxPoint x="960" y="294.5" as="sourcePoint"/>
                        <mxPoint x="1070" y="439.5" as="targetPoint"/>
                    </mxGeometry>
                </mxCell>
                <mxCell id="nKxn7mJy5K4W1X4Z80WW-85" value="" style="endArrow=classic;html=1;rounded=0;exitX=1;exitY=0.25;exitDx=0;exitDy=0;entryX=0;entryY=0.5;entryDx=0;entryDy=0;strokeColor=#36393d;fillColor=#f9f7ed;fontColor=#080808;startArrow=none;" parent="1" source="VGDOHHYCb-uCLaKSD1Ca-94" target="mOK6NjzvD6mZe8noQFNt-75" edge="1">
                    <mxGeometry width="50" height="50" relative="1" as="geometry">
                        <mxPoint x="960" y="294.5" as="sourcePoint"/>
                        <mxPoint x="1070" y="510" as="targetPoint"/>
                    </mxGeometry>
                </mxCell>
                <mxCell id="nKxn7mJy5K4W1X4Z80WW-86" value="" style="endArrow=classic;html=1;rounded=0;exitX=1;exitY=0.25;exitDx=0;exitDy=0;entryX=0;entryY=0.5;entryDx=0;entryDy=0;strokeColor=#36393d;fillColor=#f9f7ed;fontColor=#080808;startArrow=none;" parent="1" source="VGDOHHYCb-uCLaKSD1Ca-94" target="mOK6NjzvD6mZe8noQFNt-76" edge="1">
                    <mxGeometry width="50" height="50" relative="1" as="geometry">
                        <mxPoint x="960" y="294.5" as="sourcePoint"/>
                        <mxPoint x="1070" y="580.5" as="targetPoint"/>
                    </mxGeometry>
                </mxCell>
                <mxCell id="nKxn7mJy5K4W1X4Z80WW-88" value="" style="endArrow=classic;html=1;rounded=0;entryX=0;entryY=0.5;entryDx=0;entryDy=0;strokeColor=#36393d;fillColor=#f9f7ed;fontColor=#080808;startArrow=none;exitX=1;exitY=0.25;exitDx=0;exitDy=0;" parent="1" source="VGDOHHYCb-uCLaKSD1Ca-94" target="mOK6NjzvD6mZe8noQFNt-78" edge="1">
                    <mxGeometry width="50" height="50" relative="1" as="geometry">
                        <mxPoint x="950" y="290" as="sourcePoint"/>
                        <mxPoint x="1070" y="720.5" as="targetPoint"/>
                    </mxGeometry>
                </mxCell>
            </root>
        </mxGraphModel>
    </diagram>
</mxfile>